<?xml version="1.0" encoding="UTF-8"?>
<svg xmlns="http://www.w3.org/2000/svg" width="218" height="257" viewBox="0 0 218 257" fill="none">
  <path d="M129.217 168.927H181.34V141.779L145.78 105.583V188.93H210.569" stroke="#12C2E8" stroke-width="3"></path>
  <path d="M7.43164 190.835H39.558V120.265L146.159 81.8164V9.78638H76.5" stroke="black" stroke-width="3"></path>
  <path d="M127.755 43.1906H92.6816V190.835H127.755V43.1906Z" fill="black"></path>
  <path d="M77.9395 11.313V168.927H132.012" stroke="url(#paint0_linear_3401_172592)" stroke-width="3"></path>
  <path d="M15.1 204.2V214.4H32.1V204.2H35.5V228H32.1V217.8H15.1V228H11.7V204.2H15.1ZM42.2934 207.6V214.4H59.2934V217.8H42.2934V224.6H62.6934V228H38.8934V204.2H62.6934V207.6H42.2934ZM82.4227 207.6H72.2227C70.3527 207.6 68.8227 209.13 68.8227 211V217.8H85.8227V211C85.8227 209.13 84.2927 207.6 82.4227 207.6ZM89.2227 211V228H85.8227V221.2H68.8227V228H65.4227V211C65.4227 207.396 68.4147 204.2 72.2227 204.2H82.4227C86.0607 204.2 89.1207 207.226 89.2227 211ZM113.687 207.6H103.487V228H100.087V207.6H89.8867V204.2H113.687V207.6ZM135.793 224.6H139.193C141.063 224.6 142.593 223.07 142.593 221.2V204.2H145.993V221.2C145.993 224.804 143.001 228 139.193 228H135.793C133.753 228 132.053 227.218 130.693 225.688C129.333 227.218 127.633 228 125.593 228H122.193C118.555 228 115.393 225.042 115.393 221.2V204.2H118.793V221.2C118.793 223.07 120.323 224.6 122.193 224.6H125.593C127.463 224.6 128.993 223.07 128.993 221.2V204.2H132.393V221.2C132.393 223.07 133.923 224.6 135.793 224.6ZM149.393 228V204.2H152.793V228H149.393ZM179.66 221.2C179.66 224.804 176.668 228 172.86 228H162.66C158.954 228 155.962 225.042 155.86 221.2H159.26C159.26 223.07 160.79 224.6 162.66 224.6H172.86C174.73 224.6 176.26 223.07 176.26 221.2C176.26 219.33 174.73 217.8 172.86 217.8H162.66C159.022 217.8 155.86 214.842 155.86 211C155.86 207.396 158.852 204.2 162.66 204.2H172.86C176.498 204.2 179.558 207.226 179.66 211H176.26C176.26 209.13 174.73 207.6 172.86 207.6H162.66C160.79 207.6 159.26 209.13 159.26 211C159.26 212.87 160.79 214.4 162.66 214.4H172.86C176.43 214.4 179.66 217.426 179.66 221.2ZM186.129 207.6V214.4H203.129V217.8H186.129V224.6H206.529V228H182.729V204.2H206.529V207.6H186.129Z" fill="black"></path>
  <defs>
    <linearGradient id="paint0_linear_3401_172592" x1="79.8881" y1="63.194" x2="130.603" y2="170.3" gradientUnits="userSpaceOnUse">
      <stop></stop>
      <stop offset="0.184" stop-color="#B01EF8"></stop>
      <stop offset="0.844" stop-color="#B01EF8"></stop>
      <stop offset="0.909" stop-color="#B01EF8"></stop>
      <stop offset="0.985" stop-color="#12C2E8"></stop>
    </linearGradient>
  </defs>
</svg>
